<?xml version="1.0" encoding="utf-8"?>
<!-- Generator: Adobe Illustrator 25.4.6, SVG Export Plug-In . SVG Version: 6.00 Build 0)  -->
<svg version="1.1" id="Layer_1" xmlns="http://www.w3.org/2000/svg" xmlns:xlink="http://www.w3.org/1999/xlink" x="0px" y="0px"
	 viewBox="0 0 900 900" enable-background="new 0 0 900 900" xml:space="preserve">
<g>
	<path d="M49-49v14.82H30.9V-49H49 M28.9-49v15.82v1h1H49V49h-72.86V21.34v-1h-1H-49V-49H28.9 M-48.5,3h43v46h2V2V1h-1h-44V3
		 M-48.5,12.5h30V49h2V11.5v-1h-1h-31V12.5 M-25.86,22.34V49H-49V22.34H-25.86 M50-50H-50v71.34h25.14V49V21.34H-50V50H50v-83.18
		H29.9V-49v15.82H50V-50L50-50z M-48.5,2h44v47V2H-48.5L-48.5,2z M-48.5,11.5h31V49V11.5H-48.5L-48.5,11.5z"/>
</g>
</svg>
