<?xml version="1.0" encoding="utf-8"?>
<!-- Generator: Adobe Illustrator 25.4.6, SVG Export Plug-In . SVG Version: 6.00 Build 0)  -->
<svg version="1.1" id="Layer_1" xmlns="http://www.w3.org/2000/svg" xmlns:xlink="http://www.w3.org/1999/xlink" x="0px" y="0px"
	 viewBox="0 0 936 1368" enable-background="new 0 0 936 1368" xml:space="preserve">
<g>
	<polygon fill="#86E2A7" points="25,-43.3 -25,-43.3 -50,0 -25,43.3 25,43.3 50,0 	"/>
	<polygon fill="#302EFF" points="20,-34.64 -20,-34.64 -40,0 -20,34.64 20,34.64 40,0 	"/>
	<polygon fill="#B90013" points="15,-25.98 -15,-25.98 -30,0 -15,25.98 15,25.98 30,0 	"/>
	<polygon fill="#007AE7" points="10,-17.32 -10,-17.32 -20,0 -10,17.32 10,17.32 20,0 	"/>
	<polygon fill="#007AE7" points="10,-17.32 -10,-17.32 -20,0 -10,17.32 10,17.32 20,0 	"/>
</g>
</svg>
