<?xml version="1.0" encoding="utf-8"?>
<!-- Generator: Adobe Illustrator 25.4.6, SVG Export Plug-In . SVG Version: 6.00 Build 0)  -->
<svg version="1.1" id="Layer_1" xmlns="http://www.w3.org/2000/svg" xmlns:xlink="http://www.w3.org/1999/xlink" x="0px" y="0px"
	 viewBox="0 0 900 900" enable-background="new 0 0 900 900" xml:space="preserve">
<g>
	<rect x="-50" y="50" fill="none" stroke="#000000" stroke-miterlimit="10" width="29.29" height="0"/>
	<polygon fill="none" stroke="#000000" stroke-miterlimit="10" points="50,20.71 35.36,35.36 20.71,50 50,50 	"/>
	<polygon fill="none" stroke="#000000" stroke-miterlimit="10" points="50,-20.71 50,-50 20.71,-50 35.36,-35.36 	"/>
	<polygon fill="none" stroke="#000000" stroke-miterlimit="10" points="-35.36,35.36 -35.36,35.36 -50,20.71 -50,50 -20.71,50 	"/>
	<polygon fill="none" stroke="#000000" stroke-miterlimit="10" points="-20.71,-50 -50,-50 -20.71,-50 	"/>
	<polygon fill="none" stroke="#000000" stroke-miterlimit="10" points="-35.36,-35.36 -20.71,-50 -50,-50 -50,-20.71 -35.36,-35.36 
			"/>
	<path fill="none" stroke="#000000" stroke-miterlimit="10" d="M-8.91,21.52c5.89-1.06,11.93-1.06,17.83,0
		c3.42-4.92,7.69-9.19,12.61-12.61c-1.06-5.89-1.06-11.93,0-17.83c-4.92-3.42-9.19-7.69-12.61-12.61c-5.89,1.06-11.93,1.06-17.83,0
		c-3.42,4.92-7.69,9.19-12.61,12.61c1.06,5.89,1.06,11.93,0,17.83C-16.6,12.33-12.33,16.6-8.91,21.52z"/>
	<path fill="none" stroke="#000000" stroke-miterlimit="10" d="M8.91,21.52c9.69,1.75,18.96,6.35,26.44,13.84
		C27.87,27.87,23.26,18.6,21.52,8.91C16.6,12.33,12.33,16.6,8.91,21.52z"/>
	<path fill="none" stroke="#000000" stroke-miterlimit="10" d="M21.52-8.91c1.75-9.69,6.35-18.96,13.84-26.44
		C27.87-27.87,18.6-23.26,8.91-21.52C12.33-16.6,16.6-12.33,21.52-8.91z"/>
	<path fill="none" stroke="#000000" stroke-miterlimit="10" d="M-21.52,8.91c-1.75,9.68-6.35,18.96-13.84,26.44
		c7.49-7.49,16.76-12.09,26.44-13.84C-12.33,16.6-16.6,12.33-21.52,8.91z"/>
	<path fill="none" stroke="#000000" stroke-miterlimit="10" d="M-8.91-21.52c-9.69-1.75-18.96-6.35-26.44-13.84
		c7.49,7.49,12.09,16.76,13.84,26.44C-16.6-12.33-12.33-16.6-8.91-21.52z"/>
	<polygon fill="none" stroke="#000000" stroke-miterlimit="10" points="20.71,50 20.71,50 35.36,35.36 	"/>
	<path fill="none" stroke="#000000" stroke-miterlimit="10" d="M21.52,8.91C29.6,3.3,39.41,0,50,0C39.41,0,29.6-3.3,21.52-8.91
		C20.46-3.02,20.46,3.02,21.52,8.91z"/>
	<path fill="none" stroke="#000000" stroke-miterlimit="10" d="M21.52,8.91c1.75,9.69,6.35,18.96,13.84,26.44L50,20.71V0
		C39.41,0,29.6,3.3,21.52,8.91z"/>
	<path fill="none" stroke="#000000" stroke-miterlimit="10" d="M21.52-8.91C29.6-3.3,39.41,0,50,0v-20.71L35.36-35.36
		C27.87-27.87,23.26-18.6,21.52-8.91z"/>
	<path fill="none" stroke="#000000" stroke-miterlimit="10" d="M8.91-21.52C3.3-29.6,0-39.41,0-50c0,10.59-3.3,20.4-8.91,28.48
		C-3.02-20.46,3.02-20.46,8.91-21.52z"/>
	<path fill="none" stroke="#000000" stroke-miterlimit="10" d="M8.91-21.52c9.69-1.75,18.96-6.35,26.44-13.84L20.71-50H0
		C0-39.41,3.3-29.6,8.91-21.52z"/>
	<rect x="-20.71" y="-50" fill="none" stroke="#000000" stroke-miterlimit="10" width="20.71" height="0"/>
	<path fill="none" stroke="#000000" stroke-miterlimit="10" d="M0-50h-20.71l-14.64,14.64c7.49,7.49,16.76,12.09,26.44,13.84
		C-3.3-29.6,0-39.41,0-50z"/>
	<path fill="none" stroke="#000000" stroke-miterlimit="10" d="M-8.91,21.52C-3.3,29.6,0,39.41,0,50c0-10.59,3.3-20.4,8.91-28.48
		C3.02,20.46-3.02,20.46-8.91,21.52z"/>
	<polygon fill="none" stroke="#000000" stroke-miterlimit="10" points="-20.71,50 -20.71,50 0,50 	"/>
	<path fill="none" stroke="#000000" stroke-miterlimit="10" d="M0,50h20.71l14.64-14.64C27.87,27.87,18.6,23.26,8.91,21.52
		C3.3,29.6,0,39.41,0,50z"/>
	<path fill="none" stroke="#000000" stroke-miterlimit="10" d="M-35.35,35.35C-35.35,35.35-35.35,35.36-35.35,35.35L-20.71,50H0
		c0-10.59-3.3-20.4-8.91-28.48C-18.6,23.26-27.87,27.87-35.35,35.35z"/>
	
		<rect x="-53.03" y="-28.03" transform="matrix(0.7071 -0.7071 0.7071 0.7071 7.3223 -38.3884)" fill="none" stroke="#000000" stroke-miterlimit="10" width="20.71" height="0"/>
	<path fill="none" stroke="#000000" stroke-miterlimit="10" d="M-21.52-8.91C-29.6-3.3-39.41,0-50,0c10.59,0,20.4,3.3,28.48,8.91
		C-20.46,3.02-20.46-3.02-21.52-8.91z"/>
	<path fill="none" stroke="#000000" stroke-miterlimit="10" d="M-35.35,35.35c7.49-7.49,12.09-16.76,13.84-26.44
		C-29.6,3.3-39.41,0-50,0c0,0,0,0,0,0v20.71L-35.35,35.35C-35.36,35.36-35.35,35.35-35.35,35.35z"/>
	<path fill="none" stroke="#000000" stroke-miterlimit="10" d="M-35.36-35.36L-50-20.71V0c0,0,0,0,0,0c10.59,0,20.4-3.3,28.48-8.91
		C-23.26-18.6-27.87-27.87-35.36-35.36z"/>
	<polygon fill="none" stroke="#000000" stroke-miterlimit="10" points="-50,0 -50,0 -50,0 	"/>
	<polygon fill="none" stroke="#000000" stroke-miterlimit="10" points="-35.36,35.36 -35.36,35.36 -35.35,35.35 	"/>
</g>
</svg>
