<?xml version="1.0" encoding="utf-8"?>
<!-- Generator: Adobe Illustrator 25.4.6, SVG Export Plug-In . SVG Version: 6.00 Build 0)  -->
<svg version="1.1" id="Layer_1" xmlns="http://www.w3.org/2000/svg" xmlns:xlink="http://www.w3.org/1999/xlink" x="0px" y="0px"
	 viewBox="0 0 936 1368" enable-background="new 0 0 936 1368" xml:space="preserve">
<g>
	<path fill="#002EA2" d="M-40,0c0-7.6,0.95-14.98,2.72-22.03L-50,0l12.72,22.03C-39.05,14.98-40,7.6-40,0z"/>
	<path fill="#86E2A7" d="M-37.28,22.03L-25,43.3h7.75C-25.31,30.82-30,15.96-30,0s4.69-30.82,12.75-43.3H-25l-12.28,21.27
		C-39.05-14.98-40-7.6-40,0S-39.05,14.98-37.28,22.03z"/>
	<path fill="#6A00B9" d="M-17.25,43.3h12.27C-14.38,31.39-20,16.35-20,0s5.62-31.39,15.02-43.3h-12.27C-25.31-30.82-30-15.96-30,0
		S-25.31,30.82-17.25,43.3z"/>
	<path fill="#FF45C2" d="M-4.98,43.3H8.49C-2.9,32.38-10,17.02-10,0s7.1-32.38,18.49-43.3H-4.98C-14.38-31.39-20-16.35-20,0
		S-14.38,31.39-4.98,43.3z"/>
	<path fill="#FF4577" d="M-10,0c0,17.02,7.1,32.38,18.49,43.3H25l0-0.01C10.06,34.65,0,18.51,0,0s10.06-34.65,25-43.3l0-0.01H8.49
		C-2.9-32.38-10-17.02-10,0z"/>
	<path fill="#A20027" d="M0,0c0,18.51,10.06,34.65,25,43.3l5-8.66C18.05,27.72,10,14.8,10,0s8.05-27.72,20-34.64l-5-8.66
		C10.06-34.65,0-18.51,0,0z"/>
	<path fill="#3A00A2" d="M10,0c0,14.8,8.05,27.72,20,34.64l5-8.66C26.04,20.79,20,11.1,20,0s6.04-20.79,15-25.98l-5-8.66
		C18.05-27.72,10-14.8,10,0z"/>
	<path fill="#2EEBFF" d="M20,0c0,11.1,6.04,20.79,15,25.98l5.01-8.67C34.03,13.85,30,7.4,30,0c0-7.4,4.03-13.85,10.01-17.31
		L35-25.98C26.04-20.79,20-11.1,20,0z"/>
	<path fill="#FF2E66" d="M30,0c0,7.4,4.03,13.85,10.01,17.31L50,0l-9.99-17.31C34.03-13.85,30-7.4,30,0z"/>
</g>
</svg>
