<?xml version="1.0" encoding="utf-8"?>
<!-- Generator: Adobe Illustrator 25.4.6, SVG Export Plug-In . SVG Version: 6.00 Build 0)  -->
<svg version="1.1" id="Layer_1" xmlns="http://www.w3.org/2000/svg" xmlns:xlink="http://www.w3.org/1999/xlink" x="0px" y="0px"
	 viewBox="0 0 936 1368" enable-background="new 0 0 936 1368" xml:space="preserve">
<g>
	<polygon fill="none" points="-50,0 -49.99,0.01 -49.96,-0.07 	"/>
	<polygon fill="none" points="48.85,-2 32.73,-29.91 4.83,-2 	"/>
	<polygon fill="none" points="-48.85,2 -32.73,29.91 -4.83,2 	"/>
	<polygon fill="none" points="-2,-43.3 -25,-43.3 -30.66,-33.49 -2,-4.83 	"/>
	<polygon fill="none" points="-32.73,-29.91 -48.85,-2 -4.83,-2 	"/>
	<polygon fill="none" points="30.66,-33.49 25,-43.3 2,-43.3 2,-4.83 	"/>
	<polygon fill="none" points="2,43.3 25,43.3 30.66,33.49 2,4.83 	"/>
	<polygon fill="none" points="49.96,0.07 50,0 49.99,-0.01 	"/>
	<polygon fill="none" points="32.73,29.91 48.85,2 4.83,2 	"/>
	<polygon fill="none" points="-30.66,33.49 -25,43.3 -2,43.3 -2,4.83 	"/>
	<polygon fill="#FF5B2E" points="48.85,-2 4.83,-2 32.73,-29.91 30.66,-33.49 2,-4.83 2,-43.3 -2,-43.3 -2,-4.83 -30.66,-33.49 
		-32.73,-29.91 -4.83,-2 -48.85,-2 -49.96,-0.07 -49.99,0.01 -48.85,2 -4.83,2 -32.73,29.91 -30.66,33.49 -2,4.83 -2,43.3 2,43.3 
		2,4.83 30.66,33.49 32.73,29.91 4.83,2 48.85,2 49.96,0.07 49.99,-0.01 	"/>
</g>
</svg>
