<?xml version="1.0" encoding="UTF-8" standalone="no"?>
<!DOCTYPE svg PUBLIC "-//W3C//DTD SVG 1.1//EN" "http://www.w3.org/Graphics/SVG/1.1/DTD/svg11.dtd">
<svg width="936px" height="1368px" version="1.1" xmlns="http://www.w3.org/2000/svg" xmlns:xlink="http://www.w3.org/1999/xlink" xml:space="preserve" xmlns:serif="http://www.serif.com/" style="fill-rule:evenodd;clip-rule:evenodd;stroke-linejoin:round;stroke-miterlimit:2;">
    <g transform="matrix(-1,0,0,1,468,-684)">
        <path d="M468.5,727.3C468.5,727.576 468.276,727.8 468,727.8L443,727.8C442.821,727.8 442.656,727.705 442.567,727.55L417.567,684.25C417.478,684.095 417.478,683.905 417.567,683.75L442.567,640.45C442.656,640.295 442.821,640.2 443,640.2L493,640.2C493.179,640.2 493.344,640.295 493.433,640.45L518.433,683.75C518.507,683.877 518.52,684.031 518.47,684.169C518.421,684.308 518.312,684.417 518.174,684.469L517.608,684.679L493,727.3L468.5,727.3ZM517.271,683.738C517.271,683.738 492.711,641.2 492.711,641.2L443.289,641.2L418.577,684L443.289,726.8C443.289,726.8 467.5,726.8 467.5,726.8L467.5,702.599C467.5,702.39 467.63,702.203 467.826,702.131L517.271,683.738Z" style="fill:rgb(134,226,167);"/>
    </g>
</svg>
